<svg width="32" height="32" viewBox="0 0 32 32" fill="none" xmlns="http://www.w3.org/2000/svg">
<g clip-path="url(#clip0_3_2)">
<circle cx="16" cy="16" r="16" fill="white"/>
<path d="M22.006 14H20.746C20.3718 12.551 19.5988 11.236 18.5146 10.2044C17.4305 9.1728 16.0787 8.46599 14.6129 8.16428C13.1471 7.86256 11.6261 7.97804 10.2226 8.49759C8.81918 9.01714 7.58961 9.91993 6.67362 11.1034C5.75763 12.2868 5.19196 13.7035 5.04088 15.1924C4.88979 16.6812 5.15936 18.1826 5.81895 19.526C6.47853 20.8693 7.50169 22.0007 8.77215 22.7916C10.0426 23.5824 11.5094 24.0011 13.006 24H22.006C23.3321 24 24.6038 23.4732 25.5415 22.5355C26.4792 21.5979 27.006 20.3261 27.006 19C27.006 17.6739 26.4792 16.4021 25.5415 15.4645C24.6038 14.5268 23.3321 14 22.006 14Z" stroke="black" stroke-width="2" stroke-linecap="round" stroke-linejoin="round"/>
</g>
<defs>
<clipPath id="clip0_3_2">
<rect width="32" height="32" fill="white"/>
</clipPath>
</defs>
</svg>
