<svg width="48" height="48" viewBox="0 0 48 48" fill="none" xmlns="http://www.w3.org/2000/svg">
<g clip-path="url(#clip0_3_2)">
<circle cx="24" cy="24" r="24" fill="white"/>
<path d="M30.0014 22H28.7417C28.3677 20.551 27.5948 19.236 26.511 18.2044C25.4271 17.1728 24.0757 16.466 22.6103 16.1643C21.1449 15.8626 19.6243 15.978 18.2212 16.4976C16.8181 17.0171 15.5889 17.9199 14.6732 19.1034C13.7574 20.2868 13.1919 21.7035 13.0409 23.1924C12.8898 24.6812 13.1593 26.1826 13.8187 27.526C14.4781 28.8693 15.501 30.0007 16.7711 30.7916C18.0412 31.5824 19.5077 32.0011 21.0038 32H30.0014C31.3271 32 32.5985 31.4732 33.5359 30.5355C34.4734 29.5979 35 28.3261 35 27C35 25.6739 34.4734 24.4021 33.5359 23.4645C32.5985 22.5268 31.3271 22 30.0014 22Z" fill="black" stroke="black" stroke-width="2" stroke-linecap="round" stroke-linejoin="round"/>
</g>
<defs>
<clipPath id="clip0_3_2">
<rect width="48" height="48" fill="white"/>
</clipPath>
</defs>
</svg>
